<svg xmlns="http://www.w3.org/2000/svg" xmlns:xlink="http://www.w3.org/1999/xlink" width="54.999" height="54.999" viewBox="0 0 54 54">
  <defs>
    <style>
      .cls-1 {
        fill: #fe9600;
      }

      .cls-1, .cls-2, .cls-3 {
        fill-rule: evenodd;
      }

      .cls-2 {
        fill: #fff;
        fill-opacity: 0.4;
        stroke: #fff;
        stroke-linejoin: round;
        stroke-opacity: 0.15;
        stroke-width: 3px;
        filter: url(#filter);
      }
    </style>
    <filter id="filter" x="0" y="1" width="56" height="56" filterUnits="userSpaceOnUse">
      <feOffset result="offset" dx="-0.07" dy="1.999" in="SourceAlpha"/>
      <feGaussianBlur result="blur" stdDeviation="2.236"/>
      <feFlood result="flood" flood-opacity="0.2"/>
      <feComposite result="composite" operator="in" in2="blur"/>
      <feBlend result="blend" in="SourceGraphic"/>
    </filter>
  </defs>
  <path class="cls-1" d="M13.7,5.376a9.139,9.139,0,0,0-1.461,3.587,11.563,11.563,0,0,0-.07,2.5,8.689,8.689,0,0,0,1.428,4.022,0.348,0.348,0,0,1,.039.317,8.256,8.256,0,0,0-.345,1.257,0.337,0.337,0,0,1-.4.24c-0.365.026-.724,0.1-1.088,0.122a1.879,1.879,0,0,0-1.325,1.385,7.628,7.628,0,0,0,.007,1.494,0.676,0.676,0,0,0,.26.429,0.716,0.716,0,0,1,.278.65,7.046,7.046,0,0,0,.316,2.637,1.736,1.736,0,0,1-.179.909,25.753,25.753,0,0,0-.5,2.686,20.142,20.142,0,0,0-.084,3.82A10.845,10.845,0,0,0,11.593,35.5,16.209,16.209,0,0,0,13.9,38.974c0.877,1.034,1.824,2,2.786,2.953,0.1,0.095.2,0.184,0.309,0.287-0.42.2-.836,0.4-1.255,0.595a30.079,30.079,0,0,0-5.2,3.251,9.611,9.611,0,0,0-.935.82c-0.134.13-.2,0.112-0.322-0.006A26.4,26.4,0,0,1,2.8,37.087a24.956,24.956,0,0,1-1.665-10.23,26.068,26.068,0,0,1,12.328-21.4c0.064-.042.135-0.075,0.2-0.112A0.291,0.291,0,0,0,13.7,5.376ZM30.116,1.571a26.039,26.039,0,0,1,17.918,9.657,25.649,25.649,0,0,1,5.435,11.807A26.427,26.427,0,0,1,48.508,43.77c-0.156.206-.242,0.206-0.446,0.062a22.589,22.589,0,0,0-3.586-2.061,37.244,37.244,0,0,0-4-1.634,0.252,0.252,0,0,1-.215-0.3c0.064-.8.074-1.595,0.17-2.389,0.066-.542.059-1.094,0.132-1.635,0.048-.352.017-0.708,0.1-1.058a0.151,0.151,0,0,1,.18-0.155c0.291,0.006.583,0,.874,0a3.038,3.038,0,0,0,2.413-1.236,2.967,2.967,0,0,0,.683-2.017,2.681,2.681,0,0,1,.345-1.051A10.763,10.763,0,0,0,46,28a10.477,10.477,0,0,0,.1-2.9,3.947,3.947,0,0,0-1.515-2.756,0.288,0.288,0,0,1-.142-0.376,15.622,15.622,0,0,0,.4-5.243,10.474,10.474,0,0,0-1.1-4.143,11.512,11.512,0,0,0-2.818-3.643,14.41,14.41,0,0,0-2.73-1.871,6.676,6.676,0,0,0-2.009-.7,0.7,0.7,0,0,1-.441-0.295,11.065,11.065,0,0,0-1.033-1.137,17.317,17.317,0,0,0-4.459-3.285C30.212,1.628,30.165,1.6,30.116,1.571ZM13.664,5.344a0.2,0.2,0,0,1,.064-0.018c0.02,0.03,0,.043-0.031.05A0.291,0.291,0,0,1,13.664,5.344Z"/>
  <g style="fill: #fff; filter: url(#filter)">
    <path id="path" class="cls-2" d="M27.489,6.3A20.694,20.694,0,1,1,6.783,27,20.7,20.7,0,0,1,27.489,6.3Z" style="stroke: inherit; filter: none; fill: inherit"/>
  </g>
  <use xlink:href="#path" style="stroke: #fff; filter: none; fill: none"/>
  <path class="cls-3" d="M17.279,44.129a19.877,19.877,0,0,0-2.188,1.032,25.929,25.929,0,0,0-3.377,2.176,17.074,17.074,0,0,0-2.7,2.556c-0.088.1-.194,0.19-0.287,0.289a0.357,0.357,0,0,1-.526.088,0.45,0.45,0,0,1-.206-0.563,2.917,2.917,0,0,1,.618-0.853,17.228,17.228,0,0,1,2.907-2.618,28.657,28.657,0,0,1,4.941-2.964c0.688-.323,1.384-0.628,2.126-0.964-0.451-.362-0.8-0.77-1.2-1.12a30.791,30.791,0,0,1-2.267-2.324A17.768,17.768,0,0,1,13.146,36.3a11.549,11.549,0,0,1-1.6-4.016,14.562,14.562,0,0,1-.208-3.471,17.151,17.151,0,0,1,.6-3.668c0.1-.384.216-0.765,0.321-1.148a0.568,0.568,0,0,0-.046-0.42A4.895,4.895,0,0,1,11.8,21.76c-0.023-.377-0.014-0.757,0-1.135a0.48,0.48,0,0,0-.342-0.619,0.517,0.517,0,0,1-.228-0.593,2.823,2.823,0,0,1,.09-0.674,0.809,0.809,0,0,1,.712-0.635c0.55-.092,1.109-0.136,1.666-0.178a0.23,0.23,0,0,0,.253-0.2,21.216,21.216,0,0,1,.658-2.335,0.24,0.24,0,0,0-.033-0.255A8.676,8.676,0,0,1,13.015,11.5,6.526,6.526,0,0,1,12.9,9.95a8.838,8.838,0,0,1,2.28-5.236,11.433,11.433,0,0,1,3.638-2.819A10.559,10.559,0,0,1,21.834.98a9.09,9.09,0,0,1,2-.172,14.867,14.867,0,0,1,4.5.887,14.65,14.65,0,0,1,4.13,2.349,12.891,12.891,0,0,1,2.673,2.706,0.949,0.949,0,0,0,.725.312,9.236,9.236,0,0,1,3.269,1.546A10.05,10.05,0,0,1,42.1,11.6a11.694,11.694,0,0,1,1.686,4.56,15.14,15.14,0,0,1,.088,2.9,14.467,14.467,0,0,1-.636,3.174,0.237,0.237,0,0,0,.158.357,3.055,3.055,0,0,1,1.722,2.619,7.6,7.6,0,0,1-.933,4.444,4.428,4.428,0,0,0-.414,1.675,2.385,2.385,0,0,1-1.955,2.141,2.413,2.413,0,0,1-1.754-.291,2.254,2.254,0,0,0-.254-0.117,0.113,0.113,0,0,0-.041.011c-0.043.536-.08,1.078-0.13,1.619-0.07.761-.152,1.521-0.224,2.282-0.027.287-.035,0.576-0.056,0.864-0.059.84-.092,1.682-0.071,2.525a0.241,0.241,0,0,0,.2.279,34.48,34.48,0,0,1,3.6,1.389A25.513,25.513,0,0,1,47.706,44.6a11.317,11.317,0,0,1,1.787,1.533,0.5,0.5,0,0,1,.049.7,0.478,0.478,0,0,1-.708.093c-0.444-.324-0.865-0.68-1.308-1.005a28.5,28.5,0,0,0-2.437-1.558c-1.008-.591-2.072-1.072-3.129-1.566-0.206-.1-0.3-0.066-0.392.136a16.759,16.759,0,0,1-3.373,4.952,21.784,21.784,0,0,1-1.781,1.65A17.311,17.311,0,0,1,32.9,51.693a13.379,13.379,0,0,1-1.769.721,17.219,17.219,0,0,1-3.218.675,13.567,13.567,0,0,1-1.666.109,14.9,14.9,0,0,1-3.43-.537,8.836,8.836,0,0,1-3.275-1.716A6.86,6.86,0,0,1,17.8,48.73a6.38,6.38,0,0,1-.7-3.282A6.8,6.8,0,0,1,17.279,44.129Zm1.627-18a6.065,6.065,0,0,1-.873.113,16.712,16.712,0,0,1-2.144-.047A4.245,4.245,0,0,1,13.249,25a1.191,1.191,0,0,0-.158-0.121,1.37,1.37,0,0,0-.074.179c-0.111.427-.222,0.854-0.327,1.283a13.627,13.627,0,0,0-.422,2.644A14.905,14.905,0,0,0,12.3,30.72a11.139,11.139,0,0,0,.459,2.342,12.474,12.474,0,0,0,2.63,4.487,24.379,24.379,0,0,0,1.778,1.9,0.661,0.661,0,0,1,.1.108,8.378,8.378,0,0,0,1.462,1.383,0.624,0.624,0,0,1-.03-0.381c0.178-.352.325-0.719,0.51-1.066a0.277,0.277,0,0,1,.4-0.174c0.2,0.1.128,0.258,0.074,0.386-0.151.363-.329,0.713-0.482,1.075-0.085.2-.237,0.206-0.479,0.166,0.32,0.266.574,0.515,0.863,0.712a8.478,8.478,0,0,0,4.386,1.4,11.978,11.978,0,0,0,1.94-.038,16.158,16.158,0,0,0,2.821-.53A13.073,13.073,0,0,0,32.019,41.1a16.6,16.6,0,0,0,3.874-3.159,11.156,11.156,0,0,0,1.178-1.567A13.5,13.5,0,0,0,38.716,32.4c0.108-.486.3-0.955,0.388-1.443a0.388,0.388,0,0,1,.35-0.4,0.347,0.347,0,0,1,.359.413,1.948,1.948,0,0,0,.129.722,1.7,1.7,0,0,0,1.661.782,1.58,1.58,0,0,0,1.286-1.756,1.233,1.233,0,0,1,.07-0.623c0.094-.213.167-0.436,0.267-0.646a7.835,7.835,0,0,0,.9-3.895,2.777,2.777,0,0,0-.479-1.537,1.3,1.3,0,0,0-1.366-.623,2.459,2.459,0,0,0-1.553,1.2c-0.112.173-.22,0.35-0.343,0.516a0.248,0.248,0,0,1-.429.033,7.343,7.343,0,0,0-.989-0.771,0.934,0.934,0,0,1-.437-1.06,9.6,9.6,0,0,0,.1-2.1c-0.006-.119.033-0.343-0.171-0.381a7.511,7.511,0,0,0-1.821-.183c-0.1.006-.151,0.02-0.156,0.141a8.608,8.608,0,0,1-.232,1.722,4.677,4.677,0,0,1-3.045,3.609,6.608,6.608,0,0,1-2.808.309,7.793,7.793,0,0,1-2.158-.473A4.683,4.683,0,0,1,25.677,23.6a6.393,6.393,0,0,1-.665-2.676c-0.006-.2.021-0.422-0.325-0.458-0.5-.052-0.987-0.017-1.48-0.039-0.278-.012-0.338.133-0.349,0.368a3.97,3.97,0,0,1-.351,1.477,8.4,8.4,0,0,1-1.552,2.068,5.862,5.862,0,0,0-1.174,1.6,1.47,1.47,0,0,0,.4,1.97c0.108,0.062.229,0.113,0.192,0.26a0.33,0.33,0,0,1-.348.237,1.176,1.176,0,0,1-1.2-.834A2.072,2.072,0,0,1,18.906,26.124Zm19.632-7.019c-0.068-.612-0.128-1.178-0.2-1.743s-0.144-1.11-.215-1.666a4.144,4.144,0,0,0-.4-1.655,16.517,16.517,0,0,0-2.039-2.832,13.221,13.221,0,0,0-1.642-1.541A12.174,12.174,0,0,0,30.9,7.812a12.988,12.988,0,0,0-5.921-.844,8.983,8.983,0,0,0-4.222,1.49A13.18,13.18,0,0,0,18.224,10.7a12.327,12.327,0,0,0-1.583,2.187,18.745,18.745,0,0,0-1.7,4.8c-0.033.138-.023,0.24,0.193,0.241,0.686,0,1.371-.008,2.059.041,0.785,0.056,1.568.13,2.352,0.181a10.669,10.669,0,0,1,2.051.3,1.631,1.631,0,0,1,.98.388,0.559,0.559,0,0,0,.508.192,10.5,10.5,0,0,1,2.057-.012,0.366,0.366,0,0,0,.314-0.1,1.687,1.687,0,0,1,.753-0.359c0.483-.1.967-0.173,1.456-0.236a24.612,24.612,0,0,1,2.892-.224q1.607-.015,3.211.1c0.726,0.052,1.453.108,2.172,0.2A10.447,10.447,0,0,1,38.538,19.105ZM38.476,35.657a1.527,1.527,0,0,0-.1.151,12.744,12.744,0,0,1-2.333,3.367,15.526,15.526,0,0,1-2.479,2.143,18.045,18.045,0,0,1-3.321,1.847,12.072,12.072,0,0,1-2.568.72,15.4,15.4,0,0,1-1.962.329,13.136,13.136,0,0,1-1.843.04,13.689,13.689,0,0,1-2.675-.532,11.609,11.609,0,0,1-1.589-.668,7.551,7.551,0,0,0,.165,1.878A5.407,5.407,0,0,0,21.1,47.557a5.31,5.31,0,0,0,2.085,1.4,8.557,8.557,0,0,0,2.925.629,15.938,15.938,0,0,0,2.1-.1,12.425,12.425,0,0,0,2.133-.466,12.908,12.908,0,0,0,2.847-1.333A13.568,13.568,0,0,0,35.245,46.2a13.24,13.24,0,0,0,1.475-1.509,12.447,12.447,0,0,0,1.61-2.426,0.663,0.663,0,0,0,.083-0.441,5.454,5.454,0,0,1-.1-1.082c-0.02-1.067-.008-2.134-0.006-3.2a2.626,2.626,0,0,1,.029-0.312C38.394,36.721,38.428,36.212,38.476,35.657ZM15.2,13.768a0.216,0.216,0,0,0,.1-0.139,14.777,14.777,0,0,1,2.259-3.613,15.044,15.044,0,0,1,2.629-2.4,10.742,10.742,0,0,1,3.06-1.4,10.551,10.551,0,0,1,1.73-.4,9.446,9.446,0,0,1,1.95-.083,14.51,14.51,0,0,1,1.915.274,13.1,13.1,0,0,1,3.625,1.37,13.458,13.458,0,0,1,2.088,1.412c0.039,0.033.071,0.111,0.134,0.063,0.1-.079-0.022-0.108-0.05-0.151a17.479,17.479,0,0,0-1.826-2.337A13.683,13.683,0,0,0,29.783,3.9a12.4,12.4,0,0,0-5.617-1.747,10.281,10.281,0,0,0-2.274.1,9.723,9.723,0,0,0-2.582.8,9.087,9.087,0,0,0-3.2,2.488,7.275,7.275,0,0,0-1.821,3.793,7.112,7.112,0,0,0,.215,2.832A7.385,7.385,0,0,0,15.2,13.768ZM29.6,19.2c-0.337,0-.674.028-1.01,0.042-0.6.025-1.183,0.141-1.776,0.194a0.553,0.553,0,0,0-.511.352,1.811,1.811,0,0,0-.124.634,8.674,8.674,0,0,0,.244,1.746,4.243,4.243,0,0,0,.96,1.924,4.567,4.567,0,0,0,3.225,1.323,5.558,5.558,0,0,0,1.63-.1A3.4,3.4,0,0,0,34.676,23.6a6.492,6.492,0,0,0,.71-3.322A0.746,0.746,0,0,0,34.81,19.5a15.408,15.408,0,0,0-2.654-.294C31.3,19.209,30.453,19.155,29.6,19.2ZM18.535,43.657c-0.2.012-.177,0.176-0.2,0.263A7.287,7.287,0,0,0,18.2,46.81a5.442,5.442,0,0,0,1.445,2.859,7.728,7.728,0,0,0,2.684,1.786,10.267,10.267,0,0,0,3.525.748,13.584,13.584,0,0,0,1.765-.037,13.176,13.176,0,0,0,2.128-.344,15.959,15.959,0,0,0,3.883-1.544,16.131,16.131,0,0,0,2.949-2.086,17.5,17.5,0,0,0,2.813-3.209A11.212,11.212,0,0,0,40.7,42.523c0.059-.165.039-0.218-0.116-0.271a3.106,3.106,0,0,1-.65-0.264c-0.252-.157-0.328-0.01-0.4.174A12.343,12.343,0,0,1,36.967,46a14.207,14.207,0,0,1-2.252,1.974,14.444,14.444,0,0,1-4.309,2.192,12.638,12.638,0,0,1-2.864.522,12.41,12.41,0,0,1-2.6-.094,8.805,8.805,0,0,1-3.216-1.066,5.926,5.926,0,0,1-2.541-2.848A8.933,8.933,0,0,1,18.535,43.657ZM15.547,19.084c-0.254,0-.469.015-0.68,0a0.279,0.279,0,0,0-.336.263c-0.286,1.351-.612,2.693-1.019,4.013a0.259,0.259,0,0,0,0,.218,2.544,2.544,0,0,0,1.5,1.387,6.749,6.749,0,0,0,2.762.244,3.961,3.961,0,0,0,2.3-.982,4.982,4.982,0,0,0,1.678-4.112,0.641,0.641,0,0,0-.583-0.689,4.2,4.2,0,0,0-.843-0.152c-0.956-.084-1.916-0.149-2.876-0.177A18.363,18.363,0,0,0,15.547,19.084Zm26.665,2.085c1.793-6.306-1.556-11.1-5.871-12.6A108.8,108.8,0,0,1,42.211,21.169Zm-2.81-.037c0,0.769.01,1.512-.005,2.256a0.661,0.661,0,0,0,.329.609c0.193,0.137.262,0.079,0.387-.074a3.441,3.441,0,0,1,.763-0.813,0.645,0.645,0,0,0,.319-0.3,6.7,6.7,0,0,0,.08-0.711,0.2,0.2,0,0,0-.149-0.18A14.813,14.813,0,0,0,39.4,21.132Zm-0.458-4.875a3.4,3.4,0,0,0,0,.389c0.119,0.872.227,1.744,0.288,2.622a0.157,0.157,0,0,0,.075.145c0.49,0.224.982,0.444,1.5,0.674a19.262,19.262,0,0,0-.846-1.911A17.358,17.358,0,0,0,38.943,16.258ZM12.914,21.751l0.076,0.014c0.222-.769.446-1.538,0.665-2.308,0.028-.1.144-0.23,0.012-0.3a0.31,0.31,0,0,0-.332.108,0.571,0.571,0,0,0-.17.225A5.337,5.337,0,0,0,12.914,21.751ZM30.9,32.33c0,0.351-.215.49-0.5,0.322a0.605,0.605,0,0,0-.659.019,5,5,0,0,1-1.654.445c-0.629.091-1.256,0.2-1.886,0.278a8.3,8.3,0,0,1-.978.059c-0.948.008-1.895,0.136-2.841,0.063-0.769-.059-1.544-0.022-2.309-0.117a11.074,11.074,0,0,1-1.741-.367,0.431,0.431,0,0,0-.222-0.023,0.45,0.45,0,0,1-.639-0.356,0.409,0.409,0,0,1,.307-0.524,2.515,2.515,0,0,1,.385-0.161,0.256,0.256,0,0,1,.334.084c0.122,0.219.256,0.168,0.454,0.091,0.546-.214,1.032-0.55,1.594-0.731a1.15,1.15,0,0,1,.993.068,1.812,1.812,0,0,0,1.759.116,3.455,3.455,0,0,1,2.343-.029c0.774,0.192,1.538.433,2.318,0.594a3.04,3.04,0,0,0,1.472-.116,0.187,0.187,0,0,0,.132-0.213,0.324,0.324,0,0,1,.5-0.293,1.541,1.541,0,0,1,.659.371A0.494,0.494,0,0,1,30.9,32.33Zm-3.84.277c-0.492-.141-0.981-0.3-1.478-0.421a3.476,3.476,0,0,0-1.961-.064,3.068,3.068,0,0,1-2.378-.1,0.548,0.548,0,0,0-.406-0.033c-0.431.125-.791,0.39-1.2,0.549a0.111,0.111,0,0,0-.088.13c0.018,0.062.08,0.03,0.123,0.04a10.344,10.344,0,0,0,2,.16,40.514,40.514,0,0,0,4.262-.054A2.588,2.588,0,0,0,27.062,32.608Zm14.446-5.92a1.193,1.193,0,0,1,1.106,1.231,2.572,2.572,0,0,1-.473,1.663,0.562,0.562,0,0,1-.5.327c-0.317-.034-0.419-0.366-0.212-0.69a1.93,1.93,0,0,0,.317-1.162,0.487,0.487,0,0,0-.13-0.335,0.217,0.217,0,0,0-.394.085c-0.069.243-.116,0.492-0.18,0.737a0.34,0.34,0,0,1-.393.322,0.354,0.354,0,0,1-.3-0.382,3.834,3.834,0,0,1,.852-2.894,2.727,2.727,0,0,1,1.176-.856,1.353,1.353,0,0,1,.566-0.068,0.284,0.284,0,0,1,.081.56A2.561,2.561,0,0,0,41.509,26.688ZM23,35.927a5.011,5.011,0,0,1-2.821-.772c-0.144-.1-0.243-0.247-0.381-0.35a0.232,0.232,0,0,1-.058-0.345,0.254,0.254,0,0,1,.373-0.07,6.152,6.152,0,0,0,1.109.434,6.884,6.884,0,0,0,2.451.1,14.043,14.043,0,0,0,2.945-.684c0.16-.052.406-0.126,0.488,0.142a0.287,0.287,0,0,1-.184.368,10.085,10.085,0,0,1-3.091,1.092A3.534,3.534,0,0,1,23,35.927Zm4.109-8.833a1.655,1.655,0,0,1-1.1,1.509,0.314,0.314,0,0,1-.4-0.091,0.274,0.274,0,0,1,.105-0.371,1.5,1.5,0,0,0,.591-1,1.7,1.7,0,0,0-.774-1.441c-0.058-.05-0.12-0.1-0.18-0.143a0.3,0.3,0,0,1-.124-0.419,0.343,0.343,0,0,1,.441-0.084A2.506,2.506,0,0,1,27.112,27.094ZM30.773,29.5a0.828,0.828,0,0,1,.459.176,2.651,2.651,0,0,1,1.255,1.55,1.935,1.935,0,0,1-.076,1.3,0.283,0.283,0,0,1-.329.206,0.326,0.326,0,0,1-.24-0.423,1.574,1.574,0,0,0-.059-0.862,2.641,2.641,0,0,0-.966-1.338c-0.075-.06-0.142-0.13-0.218-0.188a0.217,0.217,0,0,1-.091-0.276A0.238,0.238,0,0,1,30.773,29.5ZM17.555,30.863a2.282,2.282,0,0,0-.4.945,0.345,0.345,0,0,1-.347.366,0.389,0.389,0,0,1-.353-0.391,0.8,0.8,0,0,1,.15-0.619c0.16-.2.3-0.412,0.456-0.611a0.279,0.279,0,0,1,.357-0.1c0.2,0.134.248,0,.314-0.129a2.141,2.141,0,0,1,.48-0.566,0.279,0.279,0,0,1,.4-0.069,0.273,0.273,0,0,1,0,.36,2.367,2.367,0,0,0-.372,1.227,0.343,0.343,0,0,1-.322.4,0.39,0.39,0,0,1-.365-0.365A0.476,0.476,0,0,1,17.555,30.863Zm6.367-3.981a1.725,1.725,0,0,1,1.318.746,0.364,0.364,0,0,1,.01.45,0.446,0.446,0,0,1-.546.119c-0.28-.075-0.54-0.21-0.825-0.281a2.078,2.078,0,0,0-.424-0.037,0.408,0.408,0,0,1-.464-0.278,0.518,0.518,0,0,1,.259-0.529A1.04,1.04,0,0,1,23.922,26.881Zm-2.232,1.052a2.489,2.489,0,0,1-.83-0.111,0.511,0.511,0,0,1-.388-0.659,0.666,0.666,0,0,1,.567-0.514,0.768,0.768,0,0,1,.611.177,6.748,6.748,0,0,1,.6.59,0.317,0.317,0,0,1,.091.357,0.339,0.339,0,0,1-.347.16C21.9,27.929,21.817,27.933,21.691,27.933Zm6.938,3.055a0.22,0.22,0,0,1-.185.255,0.358,0.358,0,0,1-.42-0.167c-0.263-.389-0.532-0.775-0.791-1.167a0.484,0.484,0,0,1-.182-0.368,0.252,0.252,0,0,1,.373-0.228,1.094,1.094,0,0,1,.538.482c0.186,0.314.385,0.62,0.578,0.929A0.367,0.367,0,0,1,28.629,30.988ZM26.9,30.96a0.532,0.532,0,0,1-.284-0.176q-0.554-.64-1.11-1.279a0.224,0.224,0,0,1-.023-0.331,0.245,0.245,0,0,1,.348-0.076,3.288,3.288,0,0,1,.866.8,1.944,1.944,0,0,1,.479.671A0.281,0.281,0,0,1,26.9,30.96Zm3.158,0.292a0.965,0.965,0,0,1-.621-0.338c-0.341-.241-0.656-0.52-0.973-0.793a0.232,0.232,0,0,1-.1-0.265,0.236,0.236,0,0,1,.251-0.183,0.771,0.771,0,0,1,.442.161,8.454,8.454,0,0,1,1.2.925,0.279,0.279,0,0,1,.1.353A0.264,0.264,0,0,1,30.061,31.252ZM20.351,41.319a8.755,8.755,0,0,1,.364-1.647,0.558,0.558,0,0,1,.14-0.209,0.333,0.333,0,0,1,.368-0.055c0.142,0.05.075,0.19,0.059,0.274-0.068.368-.162,0.731-0.241,1.1a3.252,3.252,0,0,0-.1.553,0.349,0.349,0,0,1-.337.428C20.3,41.761,20.354,41.517,20.351,41.319ZM18.607,30.781a0.914,0.914,0,0,1,.229-0.554,3.591,3.591,0,0,1,.811-0.878,0.252,0.252,0,1,1,.369.344,5.2,5.2,0,0,0-.766,1.249,0.328,0.328,0,0,1-.4.187A0.3,0.3,0,0,1,18.607,30.781Zm4.124,9.445c-0.034.524-.059,1.048-0.107,1.571a0.3,0.3,0,0,1-.329.341,0.306,0.306,0,0,1-.3-0.368,10.249,10.249,0,0,1,.225-1.605c0.045-.165.077-0.322,0.3-0.3S22.757,40.052,22.731,40.226Zm6.948,0.765a0.3,0.3,0,0,1-.25.318,0.216,0.216,0,0,1-.276-0.181c-0.233-.572-0.453-1.149-0.7-1.712a0.238,0.238,0,0,1,.14-0.34,0.231,0.231,0,0,1,.324.083,14.4,14.4,0,0,1,.766,1.784A0.135,0.135,0,0,1,29.678,40.991ZM28,41.69a0.26,0.26,0,0,1-.208.328,0.326,0.326,0,0,1-.345-0.283c-0.141-.438-0.263-0.883-0.386-1.327A1.232,1.232,0,0,1,27,39.989a0.239,0.239,0,0,1,.18-0.231,0.187,0.187,0,0,1,.247.093c0.012,0.025.049,0.039,0.057,0.064A16.167,16.167,0,0,1,28,41.69ZM23.736,41.1c0-.347.005-0.628,0-0.909a0.239,0.239,0,0,1,.276-0.256,0.218,0.218,0,0,1,.25.248c-0.041.561,0.067,1.115,0.064,1.675a0.36,0.36,0,0,1-.161.344c-0.15.088-.3,0.133-0.373-0.11A4.836,4.836,0,0,1,23.736,41.1Zm0.588-12a0.218,0.218,0,0,1,.184.047,8.148,8.148,0,0,1,.981,1.189,0.3,0.3,0,0,1-.06.4,0.263,0.263,0,0,1-.4-0.082,12.226,12.226,0,0,0-.866-0.928,0.361,0.361,0,0,1-.111-0.439A0.266,0.266,0,0,1,24.324,29.1Zm1.86,12.734c-0.034.118-.02,0.293-0.232,0.309a0.267,0.267,0,0,1-.3-0.26c-0.113-.441-0.19-0.889-0.28-1.334a0.593,0.593,0,0,1,0-.2,0.348,0.348,0,0,1,.267-0.355c0.213-.034.26,0.142,0.287,0.287C26.018,40.783,26.1,41.3,26.185,41.83ZM19.916,30.517a0.406,0.406,0,0,1,.062-0.255,4.749,4.749,0,0,1,.866-1.215c0.1-.1.2-0.191,0.346-0.076a0.251,0.251,0,0,1,.04.381,5.3,5.3,0,0,0-.71,1.213,0.354,0.354,0,0,1-.393.272A0.274,0.274,0,0,1,19.916,30.517Zm2.25-1.075a2.947,2.947,0,0,1-.8,1.344,0.158,0.158,0,0,1-.25-0.017,0.339,0.339,0,0,1-.13-0.468q0.257-.4.513-0.8a2.893,2.893,0,0,1,.175-0.287,0.3,0.3,0,0,1,.362-0.155C22.2,29.117,22.16,29.245,22.166,29.442Zm1.857,0.948a0.284,0.284,0,0,1-.193.324,0.211,0.211,0,0,1-.278-0.085,2.683,2.683,0,0,1-.531-1.14,0.335,0.335,0,0,1,.221-0.422c0.2-.047.259,0.116,0.329,0.273a9.731,9.731,0,0,1,.41.956A0.671,0.671,0,0,0,24.023,30.39Zm6.469-14.462a15.943,15.943,0,0,1,1.764,0,1.675,1.675,0,0,1,1.011.375,4.153,4.153,0,0,1,.859.965,0.372,0.372,0,0,1,.06.422,0.337,0.337,0,0,1-.441.076A7.485,7.485,0,0,0,30.7,17.4a17,17,0,0,0-2.341.316,1.017,1.017,0,0,1-1.238-.837,0.666,0.666,0,0,1,.729-0.759C28.729,16.033,29.611,15.991,30.491,15.929Zm-12.864.125c1.01,0.093,1.988.172,2.952,0.356a1.4,1.4,0,0,1,.873,1.031c0.021,0.4-.343.6-0.879,0.475a14.806,14.806,0,0,0-1.634-.231,21.409,21.409,0,0,0-2.478-.118,0.4,0.4,0,0,1-.4-0.607,1.293,1.293,0,0,1,1.145-.841A1.315,1.315,0,0,1,17.627,16.053Zm3.954,0.6a0.438,0.438,0,0,1,.223-0.475,0.284,0.284,0,0,1,.331.17,1.421,1.421,0,0,1,.248,1.181,0.488,0.488,0,0,1-.288.336c-0.166.08-.288,0.107-0.348-0.148A3.759,3.759,0,0,0,21.581,16.657Zm5.361,0.916a0.316,0.316,0,0,1-.369.32,0.775,0.775,0,0,1-.5-0.669,0.6,0.6,0,0,1,.306-0.651,0.168,0.168,0,0,1,.281.068A4.892,4.892,0,0,1,26.941,17.574Zm2.766,3.5a5.7,5.7,0,0,0-1.435.377A0.368,0.368,0,1,1,28,20.772a4.865,4.865,0,0,1,2.783-.633,5.321,5.321,0,0,1,2.211.625,2.1,2.1,0,0,1,.483.4,0.285,0.285,0,0,1,.081.36,0.288,0.288,0,0,1-.388.073c-0.415-.152-0.838-0.282-1.252-0.437a0.5,0.5,0,0,0-.3-0.019,1.349,1.349,0,0,1-.319,1.537,1.285,1.285,0,0,1-1.344.023A1.34,1.34,0,0,1,29.708,21.075Zm-10.179,0c0.1,0.616.2,1.208-.424,1.533a0.96,0.96,0,0,1-1.168-.168,1.3,1.3,0,0,1-.136-1.47,1.776,1.776,0,0,0-.927.175,2.257,2.257,0,0,1-.715.151,0.34,0.34,0,0,1-.362-0.212,0.31,0.31,0,0,1,.126-0.338,2.6,2.6,0,0,1,1.172-.608,3.472,3.472,0,0,1,2.972.316,1.48,1.48,0,0,1,.651.617c0.1,0.233.026,0.361-.227,0.4A1.474,1.474,0,0,1,19.529,21.076Z"/>
</svg>
